<svg width="70" height="14" viewBox="0 0 70 14" fill="none" xmlns="http://www.w3.org/2000/svg">
<path d="M6.58025 0L8.0576 4.54684H12.8384L8.97066 7.35694L10.448 11.9038L6.58025 9.09368L2.71247 11.9038L4.18983 7.35694L0.32206 4.54684H5.10289L6.58025 0Z" fill="#FCD444"/>
<path d="M20.7404 0L22.2178 4.54684H26.9986L23.1308 7.35694L24.6082 11.9038L20.7404 9.09368L16.8726 11.9038L18.35 7.35694L14.4822 4.54684H19.263L20.7404 0Z" fill="#FCD444"/>
<path d="M34.9006 0L36.3779 4.54684H41.1587L37.291 7.35694L38.7683 11.9038L34.9006 9.09368L31.0328 11.9038L32.5101 7.35694L28.6424 4.54684H33.4232L34.9006 0Z" fill="#FCD444"/>
<path d="M49.0607 0L50.5381 4.54684H55.3189L51.4511 7.35694L52.9285 11.9038L49.0607 9.09368L45.1929 11.9038L46.6703 7.35694L42.8025 4.54684H47.5834L49.0607 0Z" fill="#FCD444"/>
<path d="M63.2209 0L64.6982 4.54684H69.4791L65.6113 7.35694L67.0886 11.9038L63.2209 9.09368L59.3531 11.9038L60.8305 7.35694L56.9627 4.54684H61.7435L63.2209 0Z" fill="#FFEEB3"/>
<path d="M59.3514 11.9038L63.2191 9.09368V0L61.7418 4.54684H56.9609L60.8287 7.35694L59.3514 11.9038Z" fill="#FCD344"/>
</svg>
